<svg width="40" height="40" viewBox="0 0 40 40" fill="none" xmlns="http://www.w3.org/2000/svg">
<path d="M40 20C40 31.0457 31.0457 40 20 40C8.95431 40 0 31.0457 0 20C0 8.95431 8.95431 0 20 0C31.0457 0 40 8.95431 40 20Z" fill="#71A8FC"/>
<path d="M29.4146 11.2621C27.6919 10.4873 25.8267 9.92497 23.8838 9.60006C23.8668 9.59953 23.8498 9.60262 23.8342 9.60909C23.8185 9.61557 23.8045 9.62528 23.7931 9.63755C23.56 10.0499 23.288 10.5873 23.1067 10.9997C21.0459 10.6998 18.9501 10.6998 16.8893 10.9997C16.708 10.5748 16.436 10.0499 16.1899 9.63755C16.1769 9.61255 16.1381 9.60006 16.0992 9.60006C14.1563 9.92497 12.3041 10.4873 10.5684 11.2621C10.5555 11.2621 10.5425 11.2746 10.5295 11.2871C7.0064 16.3733 6.03495 21.322 6.5142 26.2207C6.5142 26.2457 6.52715 26.2707 6.55305 26.2832C8.88455 27.9328 11.1254 28.9325 13.3403 29.5948C13.3791 29.6073 13.418 29.5948 13.431 29.5698C13.9491 28.8825 14.4154 28.1577 14.8169 27.3954C14.8428 27.3454 14.8169 27.2954 14.7651 27.2829C14.0268 27.008 13.3273 26.6831 12.6408 26.3082C12.589 26.2832 12.589 26.2082 12.6279 26.1707C12.7704 26.0707 12.9128 25.9583 13.0553 25.8583C13.0812 25.8333 13.1201 25.8333 13.146 25.8458C17.6017 27.8078 22.4072 27.8078 26.8111 25.8458C26.837 25.8333 26.8759 25.8333 26.9018 25.8583C27.0443 25.9708 27.1868 26.0707 27.3292 26.1832C27.3811 26.2207 27.3811 26.2957 27.3163 26.3207C26.6427 26.7081 25.9303 27.0205 25.192 27.2954C25.1402 27.3079 25.1273 27.3704 25.1402 27.4079C25.5547 28.1702 26.021 28.895 26.5262 29.5823C26.565 29.5948 26.6039 29.6073 26.6427 29.5948C28.8706 28.9325 31.1114 27.9328 33.4429 26.2832C33.4688 26.2707 33.4818 26.2457 33.4818 26.2207C34.0517 20.5597 32.5362 15.6485 29.4664 11.2871C29.4535 11.2746 29.4405 11.2621 29.4146 11.2621ZM15.4904 23.234C14.1563 23.234 13.0424 22.0468 13.0424 20.5847C13.0424 19.1226 14.1304 17.9354 15.4904 17.9354C16.8634 17.9354 17.9515 19.1351 17.9385 20.5847C17.9385 22.0468 16.8505 23.234 15.4904 23.234ZM24.5185 23.234C23.1844 23.234 22.0704 22.0468 22.0704 20.5847C22.0704 19.1226 23.1585 17.9354 24.5185 17.9354C25.8915 17.9354 26.9795 19.1351 26.9666 20.5847C26.9666 22.0468 25.8915 23.234 24.5185 23.234Z" fill="white"/>
</svg>
